<svg xmlns="http://www.w3.org/2000/svg" viewBox="0 0 250 250">
	<path fill="#939" d="M136.942 148.835c20.456 58.24 7.442 77.524-40.87 86.834-11.24-2.28-23.26-12.05-23.672-43.96 5.01 22.15 12.073 32.91 21.185 32.29 34.16-2.35 49.882-15.07 43.357-75.18z"/>
	<path fill="#939" d="M120.02 132.63c-17.334.164-18.975 16.166-14.948 48.532.68 6.15-10.565 16.723-37.952 12.077-62.113 15.29-63.008-15.29-55.45-38.2-8.626-18.24-4.93-33.36 11.09-45.35 11.09-36.64 34.664-49.45 70.727-38.44 20.13 6.56 4.467 18.31 30.277 48.21-5.914 2.05-22.602-27.72-30.992-42.06-46.58-14.56-55.063 9.2-54.488 41.89-.493 3.2-3.778 8.54-9.857 16.01.658 8.63.433 17.8-11.543 33.8-3.727 15.58 1.186 23.37 14.736 23.37 24.086-14.23 32.713-5.72 38.894-3.77 20.41 1.01 31.4-9.19 30.467-23.42-.25-24.14 2.75-34.858 19.04-32.68z"/>
	<path fill="#939" d="M68.874 69.363c-8.41-17.718-3.394-32.187 15.045-43.407 1.83.182 4.04.218 6.6.11 2.2-1.445 4.26-3.177 6.17-5.197 17.64-3.55 30.24-6.54 52.07 21.21-17.86-13.53-36.52-16.96-55.97-10.29-13.98 4.81-21.96 17.33-23.92 37.57z"/>
	<path fill="#939" d="M141.38 112.133c3.574-8.84-.82-15.93-9.084-40.792-3.522-10.59.158-26.07 11.26-30.85 16.388-6.84 44.68-5.72 56.076 16.35 15.95-.11 26.63 4.48 32.043 13.75 13.48 23.1 14.093 49.84 1.84 80.22-3.198 7.93-10.09 12.98-20.677 15.16-4.128.85-8.315.35-12.557-1.51-10.33-4.53-19.25-11.46-26.74-20.78-5.19-6.47-10.36-11.34-18.22-15.113l1.44-6c5.71 1.045 10.95 3.22 15.92 6.72 5.85 4.114 11.12 8.95 15.81 14.503 4.05 4.794 8.53 9.2 13.43 13.204 6.77 5.537 15.22 3.26 25.33-6.82 1.96-1.952 3.37-4.333 4.22-7.144 5.77-18.98 4.83-38.79-2.81-59.43-2.86-7.73-8.78-13.47-17.75-17.217-3.6-1.51-7.5-1.256-11.69.754-.94.454-1.66-.304-2.16-2.272-1.15-4.533-4.25-8.032-9.3-10.5-3.6-1.757-7.247-3.416-10.936-4.98-9.79-4.15-22.603-4.547-31.283 5.955-3.13 3.716-5.152 8.7-2.813 15.91 5.246 16.165 6.17 23.29-1.31 40.9z"/>
	<path fill="#939" d="M154.092 140.374l-.992 5.137c5.29 13.24 11.656 24.04 21.53 34.94 12.045 13.3 28.917 19.42 50.612 18.34 4.705-.23 8.796-2.57 12.267-7.03 1.07-1.37 1.42-3.08 1.07-5.12l3.09-1.55c5.28-7.54 1.43-16.75-11.55-27.62-23.12-19.36-43.06-28.1-76.95-28.42 28.96 3.76 47.18 10.88 68.61 24.74 5.58 5.32 8.76 4.9 13.04 14.77 2.56 6.53 3.01 18.67-13.05 20.37-17.95 1.15-33.67-4.68-47.16-17.5-9.29-8.82-15.69-18.485-20.54-31.023z"/>
	<path fill="#9CC" d="M137.9 120.37c-.66 1.32-2.76 2.143-4.133 1.597-1.407-.56-1.658-3.76-1.955-4.104-.857-.99-2.152-1.167-3.89-.53-4.678 1.712-7.533 3.744-8.563 6.1.91 3.458 1.22 5.792.92 7.007-.81 3.328.82 6.34 4.88 9.033 1.05.698 9.34-2.64 10.08-2.87-2.08 3.734-6.07 12.156 13.59 17.464 11.01-17.17 1.93-20.53-2.13-21.89.57-.242 9.07-3.427 9.38-4.65 1.2-4.723.38-8.047-2.45-9.97-1.04-.704-2.38-2.64-4.02-5.814-2.35-1.052-5.83-.638-10.45 1.24-1.714.695-2.554 1.697-2.52 3.006.01.4 1.91 3.02 1.233 4.38z"/>
</svg>
