<?xml version="1.0" encoding="utf-8"?>
<!-- Generator: Adobe Illustrator 21.0.0, SVG Export Plug-In . SVG Version: 6.00 Build 0)  -->
<svg version="1.1" id="Layer_1" xmlns="http://www.w3.org/2000/svg" xmlns:xlink="http://www.w3.org/1999/xlink" x="0px" y="0px"
	 viewBox="0 0 336 192" style="enable-background:new 0 0 336 192;" xml:space="preserve">
<style type="text/css">
	.st0{fill:#333333;}
	.st1{font-family:'FuturaPT-Book';}
	.st2{font-size:60.0427px;}
	.st3{fill:#FF9900;}
	.st4{font-family:'FuturaPT-Heavy';}
	.st5{fill:#FFFFFF;}
</style>
<rect x="-1" y="0.4" class="st0" width="336" height="31.9"/>
<text transform="matrix(1 0 0 1 55.0615 115.8623)" class="st0 st1 st2">Web</text>
<text transform="matrix(1 0 0 1 170.1572 115.8623)" class="st3 st4 st2">CAB</text>
<g transform="matrix(0.501009, 0, 0.000001, 0.506164, 192.024231, 94.816505)">
	<rect x="31.9" y="160.1" class="st3" width="31.9" height="31.9"/>
	<rect x="0" y="128.2" class="st3" width="31.9" height="31.9"/>
	<rect x="63.9" y="128.2" class="st3" width="31.9" height="31.9"/>
	<rect x="95.8" y="160.1" class="st3" width="31.9" height="31.9"/>
	<rect x="127.7" y="128.2" class="st3" width="31.9" height="31.9"/>
	<rect x="159.6" y="160.1" class="st3" width="31.9" height="31.9"/>
	<rect x="191.6" y="128.2" class="st3" width="31.9" height="31.9"/>
	<rect x="223.5" y="160.1" class="st3" width="31.9" height="31.9"/>
	<rect x="255.4" y="128.2" class="st3" width="31.9" height="31.9"/>
	<rect x="-351.3" y="160.1" class="st3" width="31.9" height="31.9"/>
	<rect x="-383.3" y="128.2" class="st3" width="31.9" height="31.9"/>
	<rect x="-319.4" y="128.2" class="st3" width="31.9" height="31.9"/>
	<rect x="-287.5" y="160.1" class="st3" width="31.9" height="31.9"/>
	<rect x="-255.6" y="128.2" class="st3" width="31.9" height="31.9"/>
	<rect x="-223.6" y="160.1" class="st3" width="31.9" height="31.9"/>
	<rect x="-191.7" y="128.2" class="st3" width="31.9" height="31.9"/>
	<rect x="-159.8" y="160.1" class="st3" width="31.9" height="31.9"/>
	<rect x="-127.8" y="128.2" class="st3" width="31.9" height="31.9"/>
	<rect x="-95.9" y="160.1" class="st3" width="31.9" height="31.9"/>
	<rect x="-64" y="128.2" class="st3" width="31.9" height="31.9"/>
	<rect x="-32" y="160.1" class="st3" width="31.9" height="31.9"/>
</g>
<g transform="matrix(0.809461, 0, 0, 0.811669, 1.773863, 126.245285)">
</g>
<g transform="matrix(-0.501009, 0, -0.000001, -0.506164, 143.975769, 97.183487)">
	<rect x="33.9" y="160.1" class="st5" width="31.9" height="31.9"/>
	<rect x="2" y="128.2" class="st5" width="31.9" height="31.9"/>
	<rect x="65.9" y="128.2" class="st5" width="31.9" height="31.9"/>
	<rect x="97.8" y="160.1" class="st5" width="31.9" height="31.9"/>
	<rect x="129.7" y="128.2" class="st5" width="31.9" height="31.9"/>
	<rect x="161.6" y="160.1" class="st5" width="31.9" height="31.9"/>
	<rect x="193.6" y="128.2" class="st5" width="31.9" height="31.9"/>
	<rect x="225.5" y="160.1" class="st5" width="31.9" height="31.9"/>
	<rect x="257.4" y="128.2" class="st5" width="31.9" height="31.9"/>
	<rect x="-349.3" y="160.1" class="st5" width="31.9" height="31.9"/>
	<rect x="-381.3" y="128.2" class="st5" width="31.9" height="31.9"/>
	<rect x="-317.4" y="128.2" class="st5" width="31.9" height="31.9"/>
	<rect x="-285.5" y="160.1" class="st5" width="31.9" height="31.9"/>
	<rect x="-253.6" y="128.2" class="st5" width="31.9" height="31.9"/>
	<rect x="-221.6" y="160.1" class="st5" width="31.9" height="31.9"/>
	<rect x="-189.7" y="128.2" class="st5" width="31.9" height="31.9"/>
	<rect x="-157.8" y="160.1" class="st5" width="31.9" height="31.9"/>
	<rect x="-125.8" y="128.2" class="st5" width="31.9" height="31.9"/>
	<rect x="-93.9" y="160.1" class="st5" width="31.9" height="31.9"/>
	<rect x="-62" y="128.2" class="st5" width="31.9" height="31.9"/>
	<rect x="-30" y="160.1" class="st5" width="31.9" height="31.9"/>
</g>
</svg>
